<svg xmlns="http://www.w3.org/2000/svg" width="72" height="60.485" viewBox="0 0 72 60.485"><defs><style>.a{fill:#0265c3;}</style></defs><path class="a" d="M25.749,18.641a12.345,12.345,0,0,0,2.671-7.525A9.881,9.881,0,0,0,18.242,1C10.98,1,2.5,5.9,2.5,19.721s8.48,18.72,15.742,18.72A9.88,9.88,0,0,0,28.42,28.327,12.085,12.085,0,0,0,26.5,21.89a9.969,9.969,0,0,1,6.24,9.232v28.92a1.44,1.44,0,1,0,2.88,0V31.122A12.853,12.853,0,0,0,25.749,18.641Zm-7.507,16.92c-6.218,0-12.862-4.162-12.862-15.84s6.644-15.84,12.862-15.84a7.011,7.011,0,0,1,7.3,7.235A10.1,10.1,0,0,1,21.8,18.664a1.44,1.44,0,0,0,0,2.114,10.678,10.678,0,0,1,3.744,7.548,7.01,7.01,0,0,1-7.3,7.235Z" transform="translate(-2.5 -0.997)"/><path class="a" d="M46.878,1A9.88,9.88,0,0,0,36.7,11.116a12.335,12.335,0,0,0,2.673,7.525A12.853,12.853,0,0,0,29.5,31.122v28.92a1.44,1.44,0,0,0,2.88,0V31.122a9.971,9.971,0,0,1,6.238-9.232A12.1,12.1,0,0,0,36.7,28.327,9.881,9.881,0,0,0,46.878,38.441c7.262,0,15.742-4.9,15.742-18.72S54.14,1,46.878,1Zm0,34.56a7.011,7.011,0,0,1-7.3-7.235,10.1,10.1,0,0,1,3.744-7.548,1.44,1.44,0,0,0,0-2.114,10.678,10.678,0,0,1-3.744-7.548,7.01,7.01,0,0,1,7.3-7.235c6.218,0,12.862,4.162,12.862,15.84S53.1,35.561,46.878,35.561Z" transform="translate(9.38 -0.997)"/><path class="a" d="M16.261,11.882a3.917,3.917,0,0,1-3.036-2.092,1.441,1.441,0,1,0-2.573,1.3,6.768,6.768,0,0,0,5.609,3.676,1.44,1.44,0,0,0,0-2.88Z" transform="translate(1.019 2.523)"/><path class="a" d="M16.261,15a6.768,6.768,0,0,0-5.609,3.676,1.441,1.441,0,0,0,2.573,1.3,3.921,3.921,0,0,1,3.036-2.092,1.44,1.44,0,0,0,0-2.88Z" transform="translate(1.019 5.165)"/><path class="a" d="M40.94,14.762a6.768,6.768,0,0,0,5.616-3.676,1.441,1.441,0,1,0-2.573-1.3,3.921,3.921,0,0,1-3.043,2.092,1.44,1.44,0,1,0,0,2.88Z" transform="translate(13.78 2.523)"/><path class="a" d="M40.94,15a1.44,1.44,0,0,0,0,2.88,3.917,3.917,0,0,1,3.036,2.092,1.441,1.441,0,1,0,2.573-1.3A6.768,6.768,0,0,0,40.94,15Z" transform="translate(13.78 5.165)"/></svg>