<?xml version="1.0" encoding="utf-8"?>
<!-- Generator: Adobe Illustrator 24.0.1, SVG Export Plug-In . SVG Version: 6.00 Build 0)  -->
<svg version="1.1" id="Layer_1" xmlns="http://www.w3.org/2000/svg" xmlns:xlink="http://www.w3.org/1999/xlink" x="0px" y="0px"
	 width="124px" height="47.1px" viewBox="0 0 124 47.1" style="enable-background:new 0 0 124 47.1;" xml:space="preserve">
<style type="text/css">
	.st0{fill:#0270C9;}
</style>
<g>
	<g>
		<g>
			<path class="st0" d="M29.7,7.1v14.5c0,3.7-3,6.7-6.7,6.7h-2.5v-1.9h2.5c2.5,0,4.8-2.1,4.8-4.8V7.1c0-1.6-1.3-2.8-2.8-2.8h-3.3
				c-1.6,0-2.8,1.3-2.8,2.8v6.7c0,1.8-1.5,3.3-3.3,3.3H8.5c-1.6,0-2.8,1.3-2.8,2.8v3.3c0,1.6,1.3,2.8,2.8,2.8h7.6v1.9H8.5
				c-2.7,0-4.8-2.2-4.8-4.8V20c0-2.7,2.2-4.8,4.8-4.8h6.9c0.7,0,1.3-0.6,1.3-1.3V7.1c0-2.7,2.2-4.8,4.8-4.8h3.3
				C27.6,2.3,29.7,4.4,29.7,7.1z"/>
			<g>
				<path class="st0" d="M8.4,2.6C6,2.6,4,4.6,4,7s1.9,4.3,4.3,4.3s4.3-1.9,4.3-4.3S10.8,2.6,8.4,2.6z M8.4,9.5C7,9.5,6,8.5,6,7.1
					s1-2.4,2.4-2.4s2.4,1,2.4,2.4S9.7,9.5,8.4,9.5z"/>
			</g>
		</g>
		<g>
			<g>
				<path class="st0" d="M43.3,22v3.3c0,2.7-2.2,4.8-4.8,4.8h-6.7c-0.7,0-1.3,0.6-1.3,1.3v6.9c0,2.7-2.2,4.8-4.8,4.8h-3.3
					c-2.7,0-4.8-2.2-4.8-4.8V23.8c0-3.7,3-6.7,6.7-6.7h2.5V19h-2.5c-2.5,0-4.8,2.1-4.8,4.8v14.5c0,1.6,1.3,2.8,2.8,2.8h3.3
					c1.6,0,2.8-1.3,2.8-2.8v-6.7c0-1.8,1.5-3.3,3.3-3.3h6.7c1.6,0,2.8-1.3,2.8-2.8v-3.3c0-1.6-1.3-2.8-2.8-2.8h-7.6v-1.9h7.5
					C41.2,17,43.3,19.3,43.3,22z"/>
			</g>
			<g>
				<path class="st0" d="M37.9,33.4c-2.4,0-4.3,1.9-4.3,4.3c0,2.4,1.9,4.3,4.3,4.3c2.4,0,4.3-1.9,4.3-4.3
					C42.4,35.3,40.4,33.4,37.9,33.4z M37.9,40.1c-1.3,0-2.4-1-2.4-2.4s1-2.4,2.4-2.4s2.4,1,2.4,2.4C40.4,39.1,39.3,40.1,37.9,40.1z"
					/>
			</g>
		</g>
	</g>
	<g>
		<path class="st0" d="M53.9,41v1.2h-0.3V41l-1.3-2.2h0.4l1,1.9l1.2-1.9h0.3L53.9,41z"/>
		<path class="st0" d="M56.3,40.5c0-1,0.7-1.8,1.8-1.8c1,0,1.8,0.7,1.8,1.8c0,1-0.7,1.8-1.8,1.8C57.1,42.3,56.3,41.6,56.3,40.5z
			 M59.6,40.5c0-0.7-0.6-1.5-1.5-1.5c-0.9,0-1.5,0.6-1.5,1.5s0.6,1.5,1.5,1.5C59,41.9,59.6,41.3,59.6,40.5z"/>
		<path class="st0" d="M61.7,40.8v-1.9H62v1.9c0,0.7,0.4,1.2,1,1.2c0.6,0,1-0.4,1-1.2v-1.9h0.3v1.9c0,1-0.6,1.5-1.3,1.5
			S61.7,41.7,61.7,40.8z"/>
		<path class="st0" d="M69.1,42.2l-0.7-1c-0.1,0-0.1,0-0.3,0h-0.9v1h-0.3v-3.4h1.3c0.9,0,1.3,0.4,1.3,1.2c0,0.6-0.3,0.9-0.7,1
			l0.9,1.2H69.1L69.1,42.2z M68.9,40c0-0.6-0.3-0.9-1-0.9H67v1.8h0.9C68.6,40.8,68.9,40.5,68.9,40z"/>
		<path class="st0" d="M76.4,38.8v3.4h-0.3v-1.5H74v1.5h-0.3v-3.4H74v1.5h2.1v-1.5H76.4z"/>
		<path class="st0" d="M80.9,41.9v0.3h-2.4v-3.4h2.2v0.4h-1.9v1.2h1.8v0.3h-1.8V42h2.1V41.9z"/>
		<path class="st0" d="M85,41.3H83l-0.4,0.9h-0.4l1.6-3.4h0.3l1.6,3.4h-0.4L85,41.3z M84.8,41l-0.9-1.8L83.2,41H84.8z"/>
		<path class="st0" d="M87.2,38.8h0.3v3.1h1.9v0.3h-2.2V38.8z"/>
		<g>
			<g>
				<path class="st0" d="M52.4,4.7h3v12.7h-3V4.7z"/>
				<path class="st0" d="M64.1,16.9c-0.6,0.4-1.5,0.6-2.2,0.6c-2.2,0-3.6-1.2-3.6-3.4v-4h-1.5V7.9h1.5V5.5h2.8v2.4h1.6V10H61v3.9
					c0,0.9,0.4,1.3,1.2,1.3c0.4,0,0.9-0.1,1.2-0.3L64.1,16.9z"/>
				<path class="st0" d="M74,11.8v5.5h-2.7v-1.2c-0.4,0.9-1.5,1.3-3,1.3c-2.2,0-3.6-1.2-3.6-3c0-1.6,1.2-2.8,4.2-2.8h2.2
					c0-1.2-0.7-1.9-2.2-1.9c-1,0-2.1,0.3-2.8,0.9l-1-1.9c1-0.7,2.7-1.2,4.2-1.2C72.2,7.4,74,8.9,74,11.8z M71.2,14.3v-1h-1.9
					c-1.3,0-1.8,0.4-1.8,1.2c0,0.7,0.6,1.2,1.6,1.2C70,15.7,70.9,15.2,71.2,14.3z"/>
				<path class="st0" d="M85.3,11.8v5.5h-2.8v-5.1c0-1.6-0.7-2.2-1.9-2.2c-1.3,0-2.4,0.9-2.4,2.7v4.8h-2.8V4h2.8v4.6
					c0.7-0.7,1.8-1.2,3.1-1.2C83.6,7.4,85.3,8.8,85.3,11.8z"/>
				<path class="st0" d="M95.9,11.8v5.5h-2.7v-1.2c-0.4,0.9-1.5,1.3-3,1.3c-2.2,0-3.6-1.2-3.6-3c0-1.6,1.2-2.8,4.2-2.8h2.2
					c0-1.2-0.7-1.9-2.2-1.9c-1,0-2.1,0.3-2.8,0.9l-1-1.9c1-0.7,2.7-1.2,4.2-1.2C94.3,7.4,95.9,8.9,95.9,11.8z M93.1,14.3v-1h-1.9
					c-1.3,0-1.8,0.4-1.8,1.2c0,0.7,0.6,1.2,1.6,1.2S92.8,15.2,93.1,14.3z"/>
				<path class="st0" d="M103.2,7.4V10c-0.3,0-0.4,0-0.6,0c-1.5,0-2.5,0.9-2.5,2.7v4.6h-2.8V7.6h2.7v1.3
					C100.6,8,101.7,7.4,103.2,7.4z"/>
				<path class="st0" d="M104.3,4.7c0-0.9,0.7-1.6,1.8-1.6c1,0,1.8,0.6,1.8,1.5c-0.1,1-0.9,1.6-1.9,1.6
					C104.9,6.2,104.3,5.6,104.3,4.7z M104.6,7.6h2.8v9.7h-2.8V7.6z"/>
				<path class="st0" d="M64,34.6v-7.6l-3.7,6.3h-1.3l-3.6-6.1v7.5h-2.7V21.8H55l4.8,7.9l4.6-7.9h2.4v12.7
					C66.8,34.6,64,34.6,64,34.6z"/>
				<path class="st0" d="M78.2,30.5h-7.3c0.3,1.2,1.3,1.9,2.8,1.9c1,0,1.8-0.3,2.4-0.9l1.5,1.6c-0.9,1-2.2,1.6-4,1.6
					c-3.3,0-5.5-2.1-5.5-4.9s2.2-4.9,5.2-4.9c2.8,0,5.1,1.9,5.1,5.1C78.4,29.9,78.4,30.2,78.2,30.5z M70.9,28.9h4.8
					c-0.1-1.2-1-2.1-2.4-2.1C72.1,26.8,71,27.5,70.9,28.9z"/>
				<path class="st0" d="M89.8,21.1v13.5h-2.7v-1c-0.7,0.9-1.8,1.2-3,1.2c-2.7,0-4.8-1.9-4.8-4.9s2.1-4.9,4.8-4.9
					c1.2,0,2.2,0.4,2.8,1.2v-4.8L89.8,21.1L89.8,21.1z M87.1,29.6c0-1.6-1-2.7-2.5-2.7c-1.3,0-2.5,1-2.5,2.7c0,1.6,1,2.7,2.5,2.7
					C85.9,32.3,87.1,31.4,87.1,29.6z"/>
				<path class="st0" d="M90.8,21.8c0-0.9,0.7-1.6,1.8-1.6c1,0,1.8,0.6,1.8,1.5s-0.7,1.6-1.8,1.6C91.6,23.5,90.8,22.7,90.8,21.8z
					 M91.1,24.8H94v9.7h-2.8V24.8z"/>
				<path class="st0" d="M95.3,29.6c0-3,2.2-4.9,5.4-4.9c2.1,0,3.6,0.9,4.3,2.5l-2.2,1.2c-0.4-0.9-1.3-1.3-2.2-1.3
					c-1.5,0-2.5,1-2.5,2.7c0,1.6,1,2.7,2.5,2.7c0.9,0,1.6-0.4,2.2-1.3l2.2,1.2c-0.7,1.5-2.2,2.4-4.3,2.4
					C97.6,34.7,95.3,32.6,95.3,29.6z"/>
				<path class="st0" d="M115.1,29v5.5h-2.7v-1.2c-0.4,0.9-1.5,1.3-3,1.3c-2.2,0-3.6-1.2-3.6-3c0-1.6,1.2-2.8,4.2-2.8h2.2
					c0-1.2-0.7-1.9-2.2-1.9c-1,0-2.1,0.3-2.8,0.9l-1-1.9c1-0.7,2.7-1.2,4.2-1.2C113.3,24.7,115.1,26,115.1,29z M112.2,31.4v-1h-1.9
					c-1.3,0-1.8,0.4-1.8,1.2c0,0.7,0.6,1.2,1.6,1.2C111,32.8,111.9,32.3,112.2,31.4z"/>
				<path class="st0" d="M116.3,21.1h2.8v13.5h-2.8V21.1z"/>
			</g>
			<path class="st0" d="M91.4,39.2h-1.2v-0.3h2.8v0.3h-1.2v3h-0.3v-3H91.4z"/>
		</g>
		<path class="st0" d="M97.6,38.8v3.4h-0.3v-1.5h-2.1v1.5h-0.3v-3.4h0.3v1.5h2.1v-1.5H97.6z"/>
		<path class="st0" d="M102.2,39.2v1.3h1.8v0.3h-1.8v1.5h-0.3v-3.4h2.4v0.3H102.2z"/>
		<path class="st0" d="M105.9,38.8h0.3v3.4h-0.3V38.8z"/>
		<path class="st0" d="M110.7,42.2l-0.7-1c-0.1,0-0.1,0-0.3,0h-0.9v1h-0.3v-3.4h1.3c0.9,0,1.3,0.4,1.3,1.2c0,0.6-0.3,0.9-0.7,1
			l0.9,1.2H110.7L110.7,42.2z M110.7,40c0-0.6-0.3-0.9-1-0.9h-0.9v1.8h0.9C110.4,40.8,110.7,40.5,110.7,40z"/>
		<path class="st0" d="M112.7,41.9l0.1-0.3c0.3,0.3,0.7,0.4,1.2,0.4c0.6,0,0.9-0.3,0.9-0.6c0-0.9-2.1-0.3-2.1-1.6
			c0-0.4,0.4-0.9,1.2-0.9c0.4,0,0.7,0.1,1,0.3l-0.1,0.3c-0.3-0.1-0.6-0.3-0.9-0.3c-0.6,0-0.9,0.3-0.9,0.6c0,0.9,2.1,0.4,2.1,1.6
			c0,0.4-0.4,0.9-1.3,0.9C113.4,42.3,112.8,42,112.7,41.9z"/>
		<path class="st0" d="M117.6,39.2h-1.2v-0.3h2.8v0.3h-1.2v3h-0.3v-3H117.6z"/>
	</g>
</g>
</svg>
